<svg width="25" height="25" viewBox="0 0 25 25" fill="none" xmlns="http://www.w3.org/2000/svg">
<path d="M10.0283 10.1394H8.84082C8.08462 10.1394 7.70652 10.1394 7.40096 10.2403C6.79963 10.439 6.32792 10.9107 6.12926 11.512C6.02832 11.8176 6.02832 12.1957 6.02832 12.9519C6.02832 13.7081 6.02832 14.0862 6.12926 14.3918C6.32792 14.9931 6.79963 15.4648 7.40096 15.6635C7.70652 15.7644 8.08462 15.7644 8.84082 15.7644H10.2641C10.5448 15.7644 10.6852 15.7644 10.8149 15.7999C10.9298 15.8314 11.0381 15.8831 11.1348 15.9527C11.244 16.0313 11.3322 16.1404 11.5086 16.3588L13.1839 18.4319C14.0571 19.5126 14.4938 20.0529 14.8763 20.1117C15.2075 20.1627 15.5422 20.0443 15.7677 19.7966C16.0283 19.5104 16.0283 18.8157 16.0283 17.4262V15.9519M16.0283 11.4519V7.92949C16.0283 6.9932 16.0283 6.52506 15.9059 6.30095C15.6612 5.85323 15.1188 5.66146 14.6471 5.85594C14.411 5.95328 14.1168 6.3174 13.5283 7.04564L12.9033 7.81908M6.02832 5.95189L20.0283 19.9519" stroke="white" stroke-width="2" stroke-linecap="round" stroke-linejoin="round"/>
</svg>
