<svg width="25" height="25" viewBox="0 0 25 25" fill="none" xmlns="http://www.w3.org/2000/svg">
<path d="M20.3783 9.87508L20.012 9.67135C19.9552 9.63971 19.9272 9.62384 19.8997 9.60738C19.6267 9.4438 19.3965 9.21778 19.2285 8.94738C19.2116 8.92017 19.1957 8.89164 19.1631 8.83524C19.1306 8.77892 19.1141 8.75038 19.099 8.72213C18.9483 8.44081 18.8668 8.1273 18.8619 7.80821C18.8614 7.77613 18.8615 7.74335 18.8626 7.67819L18.8698 7.25293C18.8812 6.5724 18.887 6.23108 18.7913 5.92477C18.7064 5.65268 18.5643 5.40207 18.3745 5.1894C18.16 4.949 17.8631 4.77749 17.2686 4.43491L16.7747 4.15035C16.1819 3.80873 15.8854 3.63786 15.5706 3.57272C15.2922 3.51509 15.0048 3.51776 14.7274 3.58004C14.4143 3.65034 14.1215 3.82566 13.5362 4.17611L13.5329 4.1777L13.179 4.38956C13.1231 4.42306 13.0948 4.43994 13.0667 4.45553C12.7885 4.61025 12.4778 4.6958 12.1596 4.70602C12.1275 4.70705 12.0949 4.70705 12.0296 4.70705C11.9648 4.70705 11.9308 4.70705 11.8988 4.70602C11.5798 4.69576 11.2685 4.60974 10.9898 4.45438C10.9617 4.43873 10.934 4.42171 10.8779 4.38805L10.5218 4.17428C9.93255 3.82051 9.63747 3.64336 9.3226 3.57272C9.04402 3.51021 8.75569 3.50848 8.47623 3.56686C8.16068 3.63277 7.86409 3.8049 7.2709 4.14918L7.26827 4.15035L6.7806 4.43339L6.77521 4.43669C6.18736 4.77786 5.89273 4.94887 5.68002 5.18829C5.49126 5.40075 5.35017 5.65096 5.26572 5.92233C5.17026 6.22906 5.17535 6.57111 5.18685 7.25484L5.194 7.67951C5.19508 7.74381 5.19696 7.77577 5.19649 7.80739C5.19175 8.12714 5.10918 8.44129 4.95806 8.72311C4.94312 8.75098 4.92702 8.77885 4.89486 8.83452C4.86268 8.89023 4.8471 8.91794 4.83041 8.94482C4.66168 9.21667 4.43046 9.44401 4.15565 9.60787C4.12847 9.62408 4.09982 9.63967 4.04353 9.67086L3.68197 9.87123C3.0804 10.2046 2.77969 10.3714 2.56088 10.6088C2.3673 10.8189 2.22107 11.068 2.13181 11.3393C2.03091 11.646 2.03099 11.9899 2.03256 12.6777L2.03383 13.2398C2.03538 13.923 2.03751 14.2643 2.13864 14.569C2.22811 14.8385 2.37327 15.0861 2.56576 15.2949C2.78334 15.5309 3.08106 15.6967 3.67806 16.0288L4.0364 16.2281C4.09739 16.262 4.12808 16.2788 4.15749 16.2965C4.4298 16.4605 4.65921 16.6872 4.8265 16.9575C4.84457 16.9867 4.86192 17.017 4.89662 17.0776C4.93088 17.1375 4.94841 17.1674 4.96426 17.1974C5.11093 17.4751 5.18946 17.7836 5.19481 18.0976C5.19539 18.1315 5.1949 18.1659 5.19373 18.2348L5.18685 18.6423C5.17527 19.3284 5.17022 19.6719 5.26624 19.9794C5.35119 20.2515 5.49316 20.5021 5.68295 20.7148C5.89747 20.9552 6.19487 21.1266 6.78939 21.4692L7.2831 21.7537C7.87595 22.0953 8.17227 22.266 8.48701 22.3311C8.76546 22.3888 9.05297 22.3865 9.33041 22.3242C9.64399 22.2538 9.9378 22.0779 10.5247 21.7265L10.8786 21.5146C10.9345 21.4811 10.9629 21.4643 10.9909 21.4487C11.2692 21.294 11.5796 21.208 11.8978 21.1978C11.9299 21.1967 11.9625 21.1967 12.0277 21.1967C12.0931 21.1967 12.1257 21.1967 12.1578 21.1978C12.4768 21.208 12.789 21.2943 13.0677 21.4497C13.0922 21.4633 13.1168 21.4781 13.1599 21.504L13.5361 21.7298C14.1254 22.0837 14.4199 22.2603 14.7348 22.3309C15.0134 22.3934 15.3019 22.396 15.5814 22.3376C15.8968 22.2717 16.194 22.0992 16.7869 21.7551L17.2819 21.4679C17.8701 21.1265 18.1651 20.9553 18.3778 20.7158C18.5666 20.5033 18.7079 20.2532 18.7923 19.9819C18.8871 19.6773 18.8814 19.3379 18.87 18.6641L18.8626 18.2246C18.8616 18.1603 18.8614 18.1283 18.8619 18.0966C18.8666 17.7769 18.9478 17.4625 19.099 17.1807C19.1139 17.1529 19.1301 17.1248 19.1622 17.0693C19.1943 17.0136 19.211 16.9858 19.2277 16.9589C19.3964 16.6871 19.6279 16.4596 19.9027 16.2957C19.9295 16.2797 19.9572 16.2644 20.0121 16.2339L20.014 16.233L20.3756 16.0327C20.9771 15.6993 21.2784 15.5323 21.4972 15.2949C21.6908 15.0849 21.8368 14.8361 21.9261 14.5648C22.0264 14.2599 22.0256 13.9179 22.0241 13.2382L22.0228 12.664C22.0212 11.9809 22.0204 11.6395 21.9193 11.3349C21.8298 11.0654 21.6838 10.8178 21.4913 10.609C21.274 10.3733 20.9758 10.2074 20.38 9.87593L20.3783 9.87508Z" stroke="white" stroke-width="2" stroke-linecap="round" stroke-linejoin="round"/>
<path d="M8.02865 12.9521C8.02865 15.1612 9.81951 16.9521 12.0287 16.9521C14.2378 16.9521 16.0287 15.1612 16.0287 12.9521C16.0287 10.743 14.2378 8.95211 12.0287 8.95211C9.81951 8.95211 8.02865 10.743 8.02865 12.9521Z" stroke="white" stroke-width="2" stroke-linecap="round" stroke-linejoin="round"/>
</svg>
